<?xml version="1.0" encoding="UTF-8" standalone="no"?>
<svg
   width="258.91464"
   zoomAndPan="magnify"
   viewBox="0 0 194.08241 70.829398"
   height="94.439201"
   preserveAspectRatio="xMidYMid"
   version="1.0"
   id="svg40"
   sodipodi:docname="Katherine Quin.svg"
   inkscape:version="1.3 (0e150ed, 2023-07-21)"
   xmlns:inkscape="http://www.inkscape.org/namespaces/inkscape"
   xmlns:sodipodi="http://sodipodi.sourceforge.net/DTD/sodipodi-0.dtd"
   xmlns="http://www.w3.org/2000/svg"
   xmlns:svg="http://www.w3.org/2000/svg">
  <sodipodi:namedview
     id="namedview40"
     pagecolor="#ffffff"
     bordercolor="#000000"
     borderopacity="0.25"
     inkscape:showpageshadow="2"
     inkscape:pageopacity="0.0"
     inkscape:pagecheckerboard="0"
     inkscape:deskcolor="#d1d1d1"
     inkscape:zoom="2.1633333"
     inkscape:cx="143.75963"
     inkscape:cy="57.318952"
     inkscape:window-width="1312"
     inkscape:window-height="449"
     inkscape:window-x="0"
     inkscape:window-y="0"
     inkscape:window-maximized="0"
     inkscape:current-layer="svg40" />
  <defs
     id="defs1">
    <g
       id="g1" />
  </defs>
  <g
     fill="#476258"
     fill-opacity="1"
     id="g4"
     transform="translate(-3.2779045,-1.2715594)">
    <g
       transform="translate(13.815729,47.054085)"
       id="g3">
      <g
         id="g2">
        <path
           d="m 40.71875,3.609375 c 0.175781,0.15625 0.253906,0.320313 0.234375,0.5 -0.02344,0.1875 -0.07422,0.351563 -0.15625,0.5 0,0.03125 0,0.046875 0,0.046875 -0.625,1.46875 -1.570313,2.578125 -2.828125,3.328125 -1.25,0.75 -2.757812,1.0625 -4.515625,0.9375 -1.699219,-0.167969 -3.03125,-0.761719 -4,-1.78125 C 28.492188,6.128906 27.9375,4.765625 27.78125,3.046875 27.71875,2.203125 27.75,1.363281 27.875,0.53125 c 0.132812,-0.820312 0.300781,-1.648438 0.5,-2.484375 0.125,-0.507813 0.25,-1.023437 0.375,-1.546875 0.238281,-0.851562 0.445312,-1.722656 0.625,-2.609375 0.25,-1.375 0.09766,-2.328125 -0.453125,-2.859375 -0.542969,-0.539062 -1.3125,-0.828125 -2.3125,-0.859375 -1,-0.03125 -2.011719,0.023437 -3.03125,0.15625 -0.585937,0.0625 -1.121094,0.101563 -1.609375,0.109375 -0.199219,0 -0.355469,0.058594 -0.46875,0.171875 -0.105469,0.105469 -0.199219,0.226563 -0.28125,0.359375 -0.523438,0.917969 -1.027344,1.851562 -1.515625,2.796875 C 15.148438,2.347656 10.21875,10.707031 4.90625,18.84375 4.082031,20.082031 3.234375,21.304688 2.359375,22.515625 2.160156,22.804688 1.9375,23.066406 1.6875,23.296875 1.445312,23.523438 1.15625,23.695312 0.8125,23.8125 0.164062,24 -0.34375,23.957031 -0.71875,23.6875 -1.09375,23.414062 -1.269531,22.9375 -1.25,22.25 c 0.042969,-0.78125 0.164062,-1.574219 0.359375,-2.375 1.15625,-4.855469 2.648437,-9.011719 4.484375,-12.46875 1.832031,-3.449219 4.046875,-6.5625 6.640625,-9.34375 2.601563,-2.789062 5.601563,-5.609375 9,-8.453125 0.53125,-0.425781 0.957031,-0.953125 1.28125,-1.578125 0.445313,-0.851562 0.894531,-1.710938 1.34375,-2.578125 1.65625,-3.1875 3.285156,-6.382813 4.890625,-9.59375 1.613281,-3.207031 3.140625,-6.457031 4.578125,-9.75 1.414063,-3.28125 2.144531,-5.734375 2.1875,-7.359375 0.03906,-1.625 -0.714844,-2.476562 -2.265625,-2.5625 -1.542969,-0.09375 -3.976562,0.523438 -7.296875,1.84375 -3.261719,1.3125 -6.453125,2.777344 -9.578125,4.390625 -3.117188,1.605469 -6.1875,3.320313 -9.21875,5.140625 -1.136719,0.65625 -2.539062,1.539062 -4.203125,2.640625 -1.65625,1.09375 -3.289063,2.277344 -4.90625,3.546875 -1.625,1.261719 -2.960937,2.496094 -4.015625,3.703125 -0.769531,0.917969 -0.960938,1.542969 -0.578125,1.875 0.386719,0.335937 1.15625,0.523437 2.3125,0.5625 0.554687,0.02344 1.5,0.02734 2.84375,0.01563 1.34375,-0.0078 2.839844,-0.07813 4.484375,-0.203125 0.925781,-0.07031 1.828125,-0.140625 2.703125,-0.203125 1.332031,-0.125 2.472656,-0.207031 3.421875,-0.25 0.945312,-0.05078 1.503906,0 1.671875,0.15625 0.0625,0.167969 -0.59375,0.355469 -1.96875,0.5625 -1.367187,0.210938 -3.054687,0.398438 -5.0625,0.5625 -2.007813,0.167969 -3.957031,0.273438 -5.84375,0.3125 -1.882813,0.03125 -3.3125,-0.03906 -4.28125,-0.21875 -1.695313,-0.363281 -2.46875,-1.019531 -2.3125,-1.96875 0.148437,-0.957031 0.964844,-2.113281 2.453125,-3.46875 1.480469,-1.351562 3.367188,-2.789062 5.65625,-4.3125 2.292969,-1.519531 4.75,-3.035156 7.375,-4.546875 2.632812,-1.519531 5.179688,-2.925781 7.640625,-4.21875 2.457031,-1.300781 4.570313,-2.378906 6.34375,-3.234375 1.78125,-0.863281 2.984375,-1.421875 3.609375,-1.671875 2.5625,-1.039063 4.8125,-1.742187 6.75,-2.109375 1.9375,-0.363281 3.453125,-0.265625 4.546875,0.296875 1.101563,0.5625 1.660156,1.703125 1.671875,3.421875 0.0078,1.71875 -0.636719,4.140625 -1.9375,7.265625 -1.0625,2.492187 -2.1875,4.953125 -3.375,7.390625 -1.1875,2.4375 -2.398438,4.867188 -3.625,7.28125 -0.46875,0.929688 -0.953125,1.886719 -1.453125,2.875 -0.273437,0.542969 -0.570313,1.117188 -0.890625,1.71875 0.363281,-0.09375 0.65625,-0.207031 0.875,-0.34375 0.226562,-0.144531 0.429688,-0.289062 0.609375,-0.4375 0.08203,-0.07031 0.175781,-0.132812 0.28125,-0.1875 4.289063,-3.144531 8.976563,-6.304688 14.0625,-9.484375 5.082031,-3.1875 10.425781,-6.15625 16.03125,-8.90625 5.601563,-2.757813 11.332031,-5.050781 17.1875,-6.875 5.863281,-1.832031 11.710937,-2.960937 17.546875,-3.390625 5.84375,-0.425781 11.54688,0.08594 17.10938,1.53125 0.0625,0.02344 0.125,0.07813 0.1875,0.171875 0.0625,0.08594 0.0937,0.171875 0.0937,0.265625 0,0.125 -0.0469,0.226562 -0.14063,0.296875 -0.0937,0.07422 -0.21875,0.109375 -0.375,0.109375 -0.10547,0.03125 -0.21875,0.02344 -0.34375,-0.03125 -4.63672,-1.195312 -9.445312,-1.65625 -14.421875,-1.375 -4.96875,0.273438 -10.007813,1.105469 -15.109375,2.5 -5.105469,1.398438 -10.164062,3.1875 -15.171875,5.375 -5.011719,2.1875 -9.867187,4.605469 -14.5625,7.25 -4.6875,2.636719 -9.101563,5.339844 -13.234375,8.109375 -4.125,2.773437 -7.859375,5.433594 -11.203125,7.984375 -0.02344,0.02344 -0.03125,0.03125 -0.03125,0.03125 -0.273437,0.167969 -0.523437,0.359375 -0.75,0.578125 -0.230469,0.210937 -0.339844,0.390625 -0.328125,0.546875 0.01953,0.148438 0.289062,0.214844 0.8125,0.203125 0.15625,0 0.304688,0 0.453125,0 0.945313,-0.09375 1.9375,-0.117187 2.96875,-0.07813 1.039063,0.03125 1.992187,0.210938 2.859375,0.53125 1.25,0.511719 1.875,1.433594 1.875,2.765625 -0.02344,0.625 -0.101562,1.234375 -0.234375,1.828125 -0.21875,0.992188 -0.449219,1.980469 -0.6875,2.96875 -0.230469,1.074219 -0.460937,2.15625 -0.6875,3.25 -0.292969,1.28125 -0.25,2.566406 0.125,3.859375 0.363281,1.113281 0.929687,1.976563 1.703125,2.59375 0.769531,0.613281 1.648438,0.929687 2.640625,0.953125 0.988281,0.03125 1.972656,-0.273438 2.953125,-0.90625 0.738281,-0.492188 1.332031,-1.121094 1.78125,-1.890625 0.08203,-0.179687 0.164062,-0.355469 0.25,-0.53125 C 39.375,4.441406 39.445312,4.28125 39.53125,4.125 39.707031,3.851562 39.90625,3.664062 40.125,3.5625 40.351562,3.46875 40.550781,3.484375 40.71875,3.609375 Z M 17,-5.40625 c 0.01953,-0.03125 0.05469,-0.082031 0.109375,-0.15625 0.07031,-0.144531 0.171875,-0.320312 0.296875,-0.53125 0.125,-0.21875 0.21875,-0.425781 0.28125,-0.625 0.0625,-0.195312 0.06641,-0.316406 0.01563,-0.359375 -0.05469,-0.039063 -0.214849,0.046875 -0.48438,0.265625 -4.367188,3.429688 -7.804688,7.28125 -10.3125,11.5625 -2.5,4.289062 -4.375,9.203125 -5.625,14.734375 -0.105469,0.488281 -0.117188,0.757813 -0.03125,0.8125 0.09375,0.0625 0.234375,-0.01172 0.421875,-0.21875 C 1.867188,19.878906 2.054688,19.644531 2.234375,19.375 2.421875,19.113281 2.5625,18.925781 2.65625,18.8125 5.207031,14.863281 7.679688,10.875 10.078125,6.84375 12.484375,2.820312 14.789062,-1.257812 17,-5.40625 Z m 0,0"
           id="path1" />
      </g>
    </g>
  </g>
  <g
     fill="#476258"
     fill-opacity="1"
     id="g7"
     transform="translate(-3.2779045,-1.2715594)">
    <g
       transform="translate(49.846864,47.054085)"
       id="g6">
      <g
         id="g5">
        <path
           d="m 10.609375,-7.453125 c 0.226563,0.125 0.25,0.445313 0.0625,0.953125 -0.28125,0.375 -0.585937,0.726562 -0.90625,1.046875 -0.324219,0.324219 -0.679687,0.609375 -1.0625,0.859375 -0.03125,0 -0.046875,0.011719 -0.046875,0.03125 -0.25,0.179688 -0.515625,0.328125 -0.796875,0.453125 -2.335937,0.835937 -3.527344,0.339844 -3.578125,-1.484375 -0.9375,0.824219 -1.570312,1.328125 -1.890625,1.515625 -0.773437,0.460937 -1.605469,0.664063 -2.5,0.609375 -0.664063,-0.039062 -1.117187,-0.242188 -1.359375,-0.609375 -0.238281,-0.363281 -0.21875,-0.859375 0.0625,-1.484375 0.429688,-0.976562 1.039062,-1.851562 1.828125,-2.625 0.925781,-0.863281 1.957031,-1.554688 3.09375,-2.078125 0.601563,-0.300781 1.238281,-0.414063 1.90625,-0.34375 0.65625,0.04297 1.050781,0.417969 1.1875,1.125 0.0625,0.21875 0.00781,0.414063 -0.15625,0.578125 -0.21875,0.1875 -0.46875,0.230469 -0.75,0.125 C 5.679688,-8.78125 5.65625,-8.78516 5.625,-8.796875 5.59375,-8.804688 5.566406,-8.820312 5.546875,-8.84375 5.265625,-9.226562 4.976562,-9.390625 4.6875,-9.328125 c -0.28125,0.0625 -0.585938,0.195313 -0.90625,0.390625 -1.511719,0.875 -2.632812,2.101562 -3.359375,3.671875 -0.042969,0.0625 -0.070313,0.136719 -0.078125,0.21875 0,0.085937 0.023438,0.152344 0.078125,0.203125 C 0.597656,-4.78125 0.789062,-4.789062 1,-4.875 1.21875,-4.957031 1.429688,-5.078125 1.640625,-5.234375 1.859375,-5.398438 2.039062,-5.535156 2.1875,-5.640625 2.207031,-5.671875 2.21875,-5.6875 2.21875,-5.6875 2.9375,-6.28125 3.632812,-6.890625 4.3125,-7.515625 4.613281,-7.835938 4.988281,-8.019531 5.4375,-8.0625 c 0.644531,0 0.914062,0.289062 0.8125,0.859375 -0.0625,0.21875 -0.125,0.433594 -0.1875,0.640625 -0.261719,0.929688 -0.277344,1.476562 -0.046875,1.640625 0.238281,0.15625 0.597656,0.15625 1.078125,0 0.488281,-0.164063 0.972656,-0.472656 1.453125,-0.921875 0.488281,-0.457031 0.894531,-0.875 1.21875,-1.25 0.332031,-0.375 0.613281,-0.492188 0.84375,-0.359375 z m 0,0"
           id="path4" />
      </g>
    </g>
  </g>
  <g
     fill="#476258"
     fill-opacity="1"
     id="g10"
     transform="translate(-3.2779045,-1.2715594)">
    <g
       transform="translate(59.549812,47.054085)"
       id="g9">
      <g
         id="g8">
        <path
           d="m 9.140625,-7.0625 c -1.304687,1.542969 -2.585937,2.679688 -3.84375,3.40625 -1.25,0.730469 -2.589844,0.96875 -4.015625,0.71875 -1.425781,-0.25 -2.015625,-1.207031 -1.765625,-2.875 0.179687,-0.832031 0.4179688,-1.648438 0.71875,-2.453125 0.75,-1.863281 1.507813,-3.71875 2.28125,-5.5625 0.25,-0.664063 0.519531,-1.332031 0.8125,-2 0.0625,-0.144531 0.125,-0.289063 0.1875,-0.4375 0.101563,-0.25 0.207031,-0.5 0.3125,-0.75 0.15625,-0.425781 -0.011719,-0.648437 -0.5,-0.671875 -0.292969,0 -0.574219,0 -0.84375,0 -0.125,0 -0.265625,0 -0.421875,0 -0.148438,0.02344 -0.296875,0.03906 -0.453125,0.04687 -0.25,0.02344 -0.5,0.03125 -0.75,0.03125 -0.25,0 -0.484375,-0.0625 -0.703125,-0.1875 -0.054688,-0.01953 -0.1015625,-0.05469 -0.140625,-0.109375 -0.03125,-0.05078 -0.046875,-0.113281 -0.046875,-0.1875 0.0234375,-0.03125 0.0507812,-0.07031 0.09375,-0.125 0.039062,-0.0625 0.097656,-0.09766 0.171875,-0.109375 0.21875,-0.09375 0.441406,-0.160156 0.671875,-0.203125 0.601562,-0.01953 1.203125,-0.03906 1.796875,-0.0625 0.238281,0 0.445313,0 0.625,0 0.382813,0 0.671875,-0.01563 0.859375,-0.04687 0.195312,-0.03125 0.351562,-0.132813 0.46875,-0.3125 0.113281,-0.175781 0.25,-0.441406 0.40625,-0.796875 0.082031,-0.195312 0.191406,-0.414062 0.328125,-0.65625 0.320313,-0.675781 0.640625,-1.367188 0.953125,-2.078125 0.144531,-0.320313 0.296875,-0.632813 0.453125,-0.9375 0.132813,-0.300781 0.335937,-0.535156 0.609375,-0.703125 0.257812,-0.132812 0.488281,-0.125 0.6875,0.03125 0.0625,0.03125 0.109375,0.09375 0.140625,0.1875 0.03125,0.08594 0.046875,0.164062 0.046875,0.234375 0,0.375 -0.101562,0.75 -0.296875,1.125 -0.03125,0.07422 -0.074219,0.167969 -0.125,0.28125 -0.125,0.34375 -0.261719,0.699219 -0.40625,1.0625 -0.28125,0.667969 -0.554687,1.34375 -0.8125,2.03125 -0.0625,0.125 -0.0625,0.242187 0,0.34375 0.0625,0.09375 0.15625,0.140625 0.28125,0.140625 0.6875,0.02344 1.363281,0.03125 2.03125,0.03125 0.34375,0 0.6875,0 1.03125,0 1.070313,0.02344 1.5,0.171875 1.28125,0.453125 -0.148437,0.167969 -0.308594,0.265625 -0.484375,0.296875 -0.167969,0.02344 -0.339844,0.01563 -0.515625,-0.01563 -0.105469,0 -0.210937,0 -0.3125,0 -1.09375,0.0625 -2.179687,0.105469 -3.25,0.125 -0.5,0 -0.835937,0.226563 -1,0.671875 -0.179687,0.429688 -0.351563,0.859375 -0.515625,1.296875 -0.242188,0.5625 -0.46875,1.117187 -0.6875,1.65625 -0.210938,0.5 -0.421875,1.011719 -0.640625,1.53125 -0.554687,1.304687 -1.089844,2.617187 -1.609375,3.9375 -0.324219,0.855469 -0.574219,1.730469 -0.75,2.625 -0.417969,1.636719 0.207031,2.261719 1.875,1.875 1.644531,-0.382813 3.363281,-1.5625 5.15625,-3.53125 0.78125,-0.5 0.984375,-0.273437 0.609375,0.671875 z m 0,0"
           id="path7" />
      </g>
    </g>
  </g>
  <g
     fill="#476258"
     fill-opacity="1"
     id="g13"
     transform="translate(-3.2779045,-1.2715594)">
    <g
       transform="translate(67.862438,47.054085)"
       id="g12">
      <g
         id="g11">
        <path
           d="m 11.875,-6.8125 c -0.167969,0.15625 -0.351562,0.296875 -0.546875,0.421875 -0.625,0.386719 -1.195313,0.695313 -1.703125,0.921875 C 9.125,-5.25 8.535156,-5.019531 7.859375,-4.78125 6.847656,-4.476562 6.195312,-4.546875 5.90625,-4.984375 5.613281,-5.421875 5.566406,-6.03125 5.765625,-6.8125 6.035156,-7.925781 6.191406,-8.738281 6.234375,-9.25 6.285156,-9.769531 6.117188,-9.953125 5.734375,-9.796875 5.347656,-9.640625 4.644531,-9.101562 3.625,-8.1875 2.207031,-6.96875 1,-5.578125 0,-4.015625 c -0.125,0.21875 -0.28125,0.398437 -0.46875,0.53125 -0.1875,0.136719 -0.414062,0.203125 -0.6875,0.203125 -0.257812,0 -0.445312,-0.066406 -0.5625,-0.203125 -0.125,-0.132813 -0.128906,-0.316406 -0.015625,-0.546875 0.574219,-1.269531 1.164063,-2.53125 1.765625,-3.78125 1.03125,-2.164062 2.050781,-4.320312 3.0625,-6.46875 0.75,-1.613281 1.488281,-3.222656 2.21875,-4.828125 0.445312,-0.945313 0.882812,-1.894531 1.3125,-2.84375 0.039062,-0.07031 0.085938,-0.15625 0.140625,-0.25 0.03125,-0.101563 0.070313,-0.207031 0.125,-0.3125 0.0625,-0.113281 0.125,-0.234375 0.1875,-0.359375 0.0625,-0.101562 0.171875,-0.1875 0.328125,-0.25 0.164062,-0.07031 0.328125,-0.117188 0.484375,-0.140625 0.164063,-0.01953 0.289063,-0.0078 0.375,0.03125 0.125,0.08594 0.191406,0.179687 0.203125,0.28125 0.019531,0.09375 0.00391,0.195313 -0.046875,0.296875 -0.011719,0.02344 -0.015625,0.05859 -0.015625,0.109375 -0.199219,0.574219 -0.40625,1.132813 -0.625,1.671875 -1.242188,2.980469 -2.589844,5.917969 -4.046875,8.8125 -0.105469,0.199219 -0.234375,0.433594 -0.390625,0.703125 -0.210938,0.398437 -0.40625,0.78125 -0.59375,1.15625 -0.1875,0.375 -0.25,0.625 -0.1875,0.75 0.0625,0.125 0.351562,0.027344 0.875,-0.296875 0.15625,-0.101562 0.296875,-0.207031 0.421875,-0.3125 0.414063,-0.28125 0.820313,-0.539062 1.21875,-0.78125 0.351563,-0.226562 0.742187,-0.351562 1.171875,-0.375 1.019531,-0.07031 1.59375,0.390625 1.71875,1.390625 0.050781,0.398437 0.035156,0.792969 -0.046875,1.1875 C 7.847656,-8.253906 7.757812,-7.875 7.65625,-7.5 c -0.023438,0.117188 -0.042969,0.226562 -0.0625,0.328125 -0.179688,0.667969 -0.132812,1.054687 0.140625,1.15625 0.269531,0.09375 0.644531,0.039063 1.125,-0.171875 0.476563,-0.207031 0.96875,-0.457031 1.46875,-0.75 0.34375,-0.175781 0.644531,-0.328125 0.90625,-0.453125 0.257813,-0.125 0.453125,-0.175781 0.578125,-0.15625 0.226562,0.03125 0.332031,0.125 0.3125,0.28125 -0.01172,0.15625 -0.09375,0.308594 -0.25,0.453125 z m 0,0"
           id="path10" />
      </g>
    </g>
  </g>
  <g
     fill="#476258"
     fill-opacity="1"
     id="g16"
     transform="translate(-3.2779045,-1.2715594)">
    <g
       transform="translate(79.028876,47.054085)"
       id="g15">
      <g
         id="g14">
        <path
           d="m 8.34375,-5.609375 c -0.5625,0.554687 -1.226562,1.027344 -1.984375,1.421875 -0.75,0.398438 -1.382813,0.65625 -1.890625,0.78125 -0.5,0.117188 -1.023438,0.183594 -1.5625,0.203125 C 2.050781,-3.160156 1.265625,-3.28125 0.546875,-3.5625 c -1.1875,-0.46875 -1.597656,-1.378906 -1.234375,-2.734375 0.34375,-1.15625 1.035156,-2.0625 2.078125,-2.71875 1.039063,-0.65625 2.117187,-0.972656 3.234375,-0.953125 0,0 0.00781,0 0.03125,0 0.28125,-0.019531 0.546875,0 0.796875,0.0625 0.4375,0.15625 0.710937,0.414062 0.828125,0.765625 0.113281,0.34375 0.035156,0.734375 -0.234375,1.171875 C 5.421875,-7.03125 4.570312,-6.503906 3.5,-6.390625 2.78125,-6.328125 2.09375,-6.363281 1.4375,-6.5 1.3125,-6.519531 1.195312,-6.484375 1.09375,-6.390625 1,-6.304688 0.941406,-6.203125 0.921875,-6.078125 c -0.199219,0.84375 0.0625,1.382813 0.78125,1.609375 0.875,0.304688 1.785156,0.304688 2.734375,0 C 5.53125,-4.800781 6.566406,-5.441406 7.546875,-6.390625 8.535156,-7.335938 9.101562,-7.78125 9.25,-7.71875 c 0.15625,0.0625 0.203125,0.246094 0.140625,0.546875 -0.136719,0.480469 -0.484375,1 -1.046875,1.5625 z M 2.109375,-7.96875 c -0.0625,0.0625 -0.105469,0.136719 -0.125,0.21875 -0.023437,0.085938 0.00781,0.164062 0.09375,0.234375 0.34375,0.1875 0.710937,0.257813 1.109375,0.203125 0.40625,-0.050781 0.742188,-0.203125 1.015625,-0.453125 0.28125,-0.25 0.398437,-0.550781 0.359375,-0.90625 -0.03125,-0.132813 -0.101562,-0.21875 -0.203125,-0.25 C 4.253906,-8.953125 4.144531,-8.957031 4.03125,-8.9375 3.3125,-8.8125 2.671875,-8.488281 2.109375,-7.96875 Z m 0,0"
           id="path13" />
      </g>
    </g>
  </g>
  <g
     fill="#476258"
     fill-opacity="1"
     id="g19"
     transform="translate(-3.2779045,-1.2715594)">
    <g
       transform="translate(87.546391,47.054085)"
       id="g18">
      <g
         id="g17">
        <path
           d="M 7.015625,-8.984375 C 6.929688,-8.304688 6.613281,-7.863281 6.0625,-7.65625 5.519531,-7.457031 5.34375,-7.726562 5.53125,-8.46875 c 0.195312,-0.738281 -0.136719,-0.925781 -1,-0.5625 -0.855469,0.367188 -1.558594,0.824219 -2.109375,1.375 -0.867187,0.875 -1.632813,1.824219 -2.296875,2.84375 -0.0625,0.085938 -0.1171875,0.15625 -0.15625,0.21875 -0.195312,0.28125 -0.390625,0.546875 -0.578125,0.796875 -0.132813,0.179687 -0.285156,0.292969 -0.453125,0.34375 -0.164062,0.042969 -0.335938,0.046875 -0.515625,0.015625 -0.164063,-0.019531 -0.289063,-0.082031 -0.375,-0.1875 -0.09375,-0.113281 -0.101563,-0.242188 -0.03125,-0.390625 0.105469,-0.257813 0.230469,-0.523437 0.375,-0.796875 0.875,-1.632812 1.765625,-3.269531 2.671875,-4.90625 0.019531,-0.019531 0.03125,-0.039062 0.03125,-0.0625 0.125,-0.25 0.273438,-0.484375 0.453125,-0.703125 0.195313,-0.207031 0.421875,-0.289063 0.671875,-0.25 0.257812,0.03125 0.429688,0.183594 0.515625,0.453125 C 2.835938,-9.945312 2.925781,-9.753906 3,-9.703125 3.082031,-9.660156 3.265625,-9.691406 3.546875,-9.796875 4.128906,-10.015625 4.695312,-10.164062 5.25,-10.25 c 0.5625,-0.09375 1.019531,-0.07031 1.375,0.0625 0.351562,0.125 0.484375,0.527344 0.390625,1.203125 z m 0,0"
           id="path16" />
      </g>
    </g>
  </g>
  <g
     fill="#476258"
     fill-opacity="1"
     id="g22"
     transform="translate(-3.2779045,-1.2715594)">
    <g
       transform="translate(94.863843,47.054085)"
       id="g21">
      <g
         id="g20">
        <path
           d="m 5.8125,-6.15625 c -0.523438,0.617188 -1.140625,1.183594 -1.859375,1.703125 -0.710937,0.511719 -1.511719,0.859375 -2.40625,1.046875 -0.898437,0.179688 -1.5859375,0.109375 -2.078125,-0.203125 -0.5,-0.3125 -0.597656,-1.003906 -0.296875,-2.078125 0.386719,-1.113281 0.921875,-2.175781 1.609375,-3.1875 0.15625,-0.207031 0.378906,-0.359375 0.671875,-0.453125 0.207031,-0.039063 0.390625,0 0.546875,0.125 0.164062,0.117187 0.226562,0.265625 0.1875,0.453125 -0.148438,0.355469 -0.308594,0.710938 -0.484375,1.0625 -0.167969,0.34375 -0.28125,0.570312 -0.34375,0.671875 -0.34375,0.625 -0.585937,1.28125 -0.71875,1.96875 0,0.386719 0.519531,0.414063 1.5625,0.078125 1.050781,-0.34375 2.066406,-0.96875 3.046875,-1.875 0.988281,-0.914062 1.457031,-1.1875 1.40625,-0.8125 -0.042969,0.375 -0.324219,0.875 -0.84375,1.5 z M 3.265625,-11.0625 c -0.054687,0.04297 -0.15625,0.08984 -0.3125,0.140625 -0.148437,0.05469 -0.308594,0.09375 -0.484375,0.125 -0.167969,0.02344 -0.296875,-0.0039 -0.390625,-0.07813 -0.09375,-0.08203 -0.101563,-0.242188 -0.015625,-0.484375 0.15625,-0.40625 0.316406,-0.757813 0.484375,-1.0625 0.175781,-0.3125 0.398437,-0.65625 0.671875,-1.03125 0.175781,-0.164063 0.363281,-0.253906 0.5625,-0.265625 0.207031,-0.0078 0.378906,0.04687 0.515625,0.171875 0.132813,0.117187 0.175781,0.28125 0.125,0.5 -0.21875,0.773437 -0.605469,1.433594 -1.15625,1.984375 z m 0,0"
           id="path19" />
      </g>
    </g>
  </g>
  <g
     fill="#476258"
     fill-opacity="1"
     id="g25"
     transform="translate(-3.2779045,-1.2715594)">
    <g
       transform="translate(100.57146,47.054085)"
       id="g24">
      <g
         id="g23">
        <path
           d="M 11.59375,-7.296875 C 11.75,-7.109375 11.55078,-6.753906 11,-6.234375 10.457031,-5.710938 9.878906,-5.273438 9.265625,-4.921875 8.648438,-4.578125 7.9375,-4.226562 7.125,-3.875 6.59375,-3.644531 6.019531,-3.566406 5.40625,-3.640625 4.800781,-3.722656 4.5,-4.085938 4.5,-4.734375 c 0,-0.65625 0.148438,-1.304687 0.453125,-1.953125 0.3125,-0.664062 0.378906,-1.003906 0.203125,-1.015625 -0.167969,-0.019531 -0.523438,0.136719 -1.0625,0.46875 -1.398438,0.917969 -2.695312,1.96875 -3.890625,3.15625 -0.320313,0.386719 -0.734375,0.601563 -1.234375,0.640625 -0.25,0 -0.441406,-0.078125 -0.578125,-0.234375 -0.144531,-0.164063 -0.164063,-0.34375 -0.0625,-0.53125 0.867187,-1.582031 1.734375,-3.148437 2.609375,-4.703125 0.195312,-0.320312 0.488281,-0.523438 0.875,-0.609375 0.164062,-0.03125 0.316406,0.023437 0.453125,0.15625 0.144531,0.136719 0.21875,0.289063 0.21875,0.453125 -0.023437,0.15625 -0.085937,0.339844 -0.1875,0.546875 -0.054687,0.125 -0.101563,0.25 -0.140625,0.375 -0.042969,0.117187 -0.058594,0.214844 -0.046875,0.296875 0.019531,0.074219 0.082031,0.09375 0.1875,0.0625 0.144531,-0.070312 0.289063,-0.15625 0.4375,-0.25 0.375,-0.207031 0.726563,-0.410156 1.0625,-0.609375 0.3125,-0.175781 0.628906,-0.332031 0.953125,-0.46875 0.332031,-0.132813 0.679688,-0.226563 1.046875,-0.28125 0.582031,-0.039063 0.992187,0.089844 1.234375,0.390625 0.25,0.304688 0.28125,0.726562 0.09375,1.265625 C 6.925781,-7.085938 6.722656,-6.601562 6.515625,-6.125 6.242188,-5.675781 6.195312,-5.332031 6.375,-5.09375 c 0.175781,0.230469 0.992188,-0.039062 2.453125,-0.8125 l 1.09375,-0.65625 c 1.03125,-0.65625 1.585937,-0.898438 1.671875,-0.734375 z m 0,0"
           id="path22" />
      </g>
    </g>
  </g>
  <g
     fill="#476258"
     fill-opacity="1"
     id="g28"
     transform="translate(-3.2779045,-1.2715594)">
    <g
       transform="translate(111.29885,47.054085)"
       id="g27">
      <g
         id="g26">
        <path
           d="m 8.34375,-5.609375 c -0.5625,0.554687 -1.226562,1.027344 -1.984375,1.421875 -0.75,0.398438 -1.382813,0.65625 -1.890625,0.78125 -0.5,0.117188 -1.023438,0.183594 -1.5625,0.203125 C 2.050781,-3.160156 1.265625,-3.28125 0.546875,-3.5625 c -1.1875,-0.46875 -1.597656,-1.378906 -1.234375,-2.734375 0.34375,-1.15625 1.035156,-2.0625 2.078125,-2.71875 1.039063,-0.65625 2.117187,-0.972656 3.234375,-0.953125 0,0 0.00781,0 0.03125,0 0.28125,-0.019531 0.546875,0 0.796875,0.0625 0.4375,0.15625 0.710937,0.414062 0.828125,0.765625 0.113281,0.34375 0.035156,0.734375 -0.234375,1.171875 C 5.421875,-7.03125 4.570312,-6.503906 3.5,-6.390625 2.78125,-6.328125 2.09375,-6.363281 1.4375,-6.5 1.3125,-6.519531 1.195312,-6.484375 1.09375,-6.390625 1,-6.304688 0.941406,-6.203125 0.921875,-6.078125 c -0.199219,0.84375 0.0625,1.382813 0.78125,1.609375 0.875,0.304688 1.785156,0.304688 2.734375,0 C 5.53125,-4.800781 6.566406,-5.441406 7.546875,-6.390625 8.535156,-7.335938 9.101562,-7.78125 9.25,-7.71875 c 0.15625,0.0625 0.203125,0.246094 0.140625,0.546875 -0.136719,0.480469 -0.484375,1 -1.046875,1.5625 z M 2.109375,-7.96875 c -0.0625,0.0625 -0.105469,0.136719 -0.125,0.21875 -0.023437,0.085938 0.00781,0.164062 0.09375,0.234375 0.34375,0.1875 0.710937,0.257813 1.109375,0.203125 0.40625,-0.050781 0.742188,-0.203125 1.015625,-0.453125 0.28125,-0.25 0.398437,-0.550781 0.359375,-0.90625 -0.03125,-0.132813 -0.101562,-0.21875 -0.203125,-0.25 C 4.253906,-8.953125 4.144531,-8.957031 4.03125,-8.9375 3.3125,-8.8125 2.671875,-8.488281 2.109375,-7.96875 Z m 0,0"
           id="path25" />
      </g>
    </g>
  </g>
  <g
     fill="#476258"
     fill-opacity="1"
     id="g31"
     transform="translate(-3.2779045,-1.2715594)">
    <g
       transform="translate(126.21076,47.054085)"
       id="g30">
      <g
         id="g29">
        <path
           d="m 71.03125,16.140625 c 0.08203,0.07031 0.132812,0.144531 0.15625,0.21875 0.01953,0.08203 -0.01172,0.160156 -0.09375,0.234375 -3.867188,2.6875 -7.859375,4.765625 -11.984375,6.234375 -4.125,1.476563 -8.324219,2.21875 -12.59375,2.21875 -4.261719,0 -8.546875,-0.914063 -12.859375,-2.734375 -5.824219,-2.523438 -10.742188,-6.199219 -14.75,-11.03125 -0.07422,-0.08594 -0.125,-0.164062 -0.15625,-0.234375 -0.07422,-0.0625 -0.136719,-0.136719 -0.1875,-0.21875 -0.179688,-0.21875 -0.335938,-0.386719 -0.46875,-0.5 -0.125,-0.117187 -0.242188,-0.183594 -0.34375,-0.203125 -0.199219,0.03906 -0.511719,0.160156 -0.9375,0.359375 -1.273438,0.59375 -2.664062,1.082031 -4.171875,1.46875 -1.511719,0.394531 -3.023437,0.582031 -4.53125,0.5625 -1.511719,-0.01172 -2.90625,-0.324219 -4.1875,-0.9375 C 2.640625,10.972656 1.582031,9.960938 0.75,8.546875 0.0820312,7.367188 -0.398438,6.132812 -0.703125,4.84375 -1.003906,3.550781 -1.164062,2.226562 -1.1875,0.875 -1.269531,-2.9375 -0.679688,-6.679688 0.578125,-10.359375 0.628906,-10.503906 0.6875,-10.648438 0.75,-10.796875 0.832031,-11.015625 0.910156,-11.21875 0.984375,-11.40625 1.085938,-11.75 0.988281,-12.019531 0.6875,-12.21875 0.601562,-12.269531 0.515625,-12.320312 0.421875,-12.375 0.148438,-12.53125 -0.125,-12.703125 -0.40625,-12.890625 c -2.875,-1.957031 -4.207031,-4.707031 -4,-8.25 0.179688,-2.332031 0.984375,-4.671875 2.421875,-7.015625 1.4375,-2.34375 3.316406,-4.5625 5.640625,-6.65625 2.332031,-2.101562 4.921875,-3.976562 7.765625,-5.625 2.84375,-1.644531 5.757813,-2.9375 8.75,-3.875 3,-0.945312 5.878906,-1.4375 8.640625,-1.46875 2.769531,-0.03125 5.242188,0.511719 7.421875,1.625 2.1875,1.117188 3.878906,2.90625 5.078125,5.375 1.175781,2.617188 1.742188,5.382812 1.703125,8.296875 C 43.003906,-30.085938 43,-29.695312 43,-29.3125 c -0.03125,0.167969 -0.04687,0.339844 -0.04687,0.515625 C 42.867188,-26.128906 42.5,-23.53125 41.84375,-21 c -0.65625,2.53125 -1.53125,5.023438 -2.625,7.46875 C 37.175781,-8.988281 34.601562,-4.882812 31.5,-1.21875 28.40625,2.445312 24.765625,5.648438 20.578125,8.390625 20.515625,8.421875 20.457031,8.445312 20.40625,8.46875 20.25,8.582031 20.09375,8.691406 19.9375,8.796875 19.65625,9.054688 19.632812,9.320312 19.875,9.59375 c 0.03906,0.070312 0.07031,0.128906 0.09375,0.171875 0.03906,0.039063 0.08203,0.082031 0.125,0.125 3.414062,4.25 7.296875,7.566406 11.640625,9.953125 4.34375,2.394531 8.976563,3.738281 13.90625,4.03125 4.925781,0.300781 9.984375,-0.59375 15.171875,-2.6875 2.625,-1.117188 5.09375,-2.511719 7.40625,-4.1875 0.519531,-0.34375 1.054688,-0.667969 1.609375,-0.96875 0.175781,-0.07422 0.363281,-0.109375 0.5625,-0.109375 0.207031,0 0.421875,0.07031 0.640625,0.21875 z m -52.25,-8.234375 c 0.101562,0 0.21875,-0.046875 0.34375,-0.140625 0.195312,-0.125 0.398438,-0.25 0.609375,-0.375 0.644531,-0.429687 1.28125,-0.871094 1.90625,-1.328125 7.445313,-5.625 12.929687,-12.738281 16.453125,-21.34375 0.90625,-2.144531 1.617188,-4.375 2.140625,-6.6875 0.519531,-2.320312 0.859375,-4.820312 1.015625,-7.5 0.03906,-0.96875 -0.05859,-2.28125 -0.296875,-3.9375 -0.28125,-2.125 -0.933594,-4.097656 -1.953125,-5.921875 -1.199219,-2.007813 -2.804688,-3.429687 -4.8125,-4.265625 -2.011719,-0.832031 -4.257812,-1.160156 -6.734375,-0.984375 -2.480469,0.167969 -5.058594,0.726563 -7.734375,1.671875 -2.667969,0.949219 -5.261719,2.195312 -7.78125,3.734375 -2.523438,1.53125 -4.824219,3.257813 -6.90625,5.171875 -2.085938,1.917969 -3.78125,3.933594 -5.09375,6.046875 -1.320312,2.117187 -2.113281,4.214844 -2.375,6.296875 -0.382812,3.417969 0.808594,6.078125 3.578125,7.984375 0.1875,0.148437 0.347656,0.230469 0.484375,0.25 0.144531,-0.03906 0.289062,-0.1875 0.4375,-0.4375 0.175781,-0.257813 0.335938,-0.507813 0.484375,-0.75 0.238281,-0.40625 0.488281,-0.789063 0.75,-1.15625 0.207031,-0.332031 0.53125,-0.515625 0.96875,-0.546875 0.00781,0 0.023437,0 0.046875,0 h 0.078125 c 0.144531,0 0.273437,0.0625 0.390625,0.1875 0.113281,0.117188 0.144531,0.246094 0.09375,0.390625 -0.179688,0.34375 -0.367188,0.6875 -0.5625,1.03125 -0.25,0.429687 -0.484375,0.855469 -0.703125,1.28125 -0.335937,0.605469 -0.195313,0.980469 0.421875,1.125 1.957031,0.605469 3.863281,0.726563 5.71875,0.359375 1.851562,-0.363281 3.546875,-1.113281 5.078125,-2.25 1.539063,-1.132812 2.785156,-2.550781 3.734375,-4.25 0.957031,-1.695312 1.5,-3.582031 1.625,-5.65625 0.132812,-1.957031 -0.179688,-3.828125 -0.9375,-5.609375 -0.03125,-0.09375 -0.04297,-0.179687 -0.03125,-0.265625 0.0078,-0.09375 0.03125,-0.175781 0.0625,-0.25 0.15625,-0.175781 0.34375,-0.25 0.5625,-0.21875 0.08203,-0.03125 0.164062,-0.03125 0.25,0 0.382812,0.105469 0.640625,0.351562 0.765625,0.734375 0.457031,1.09375 0.738281,2.21875 0.84375,3.375 0.28125,2.34375 -0.01172,4.574219 -0.875,6.6875 -0.855469,2.105469 -2.136719,3.917969 -3.84375,5.4375 -1.710937,1.523437 -3.71875,2.558594 -6.03125,3.109375 -2.460937,0.554688 -4.90625,0.542969 -7.34375,-0.03125 -0.25,-0.0625 -0.464844,-0.09375 -0.640625,-0.09375 -0.148438,0 -0.273438,0.0625 -0.375,0.1875 -0.09375,0.125 -0.183594,0.320312 -0.265625,0.578125 C 1.679688,-8.566406 1.195312,-6.65625 0.875,-4.71875 0.550781,-2.789062 0.4375,-0.835938 0.53125,1.140625 c 0.050781,2.144531 0.507812,4.1875 1.375,6.125 0.707031,1.550781 1.628906,2.660156 2.765625,3.328125 1.132813,0.675781 2.378906,1.019531 3.734375,1.03125 1.351562,0.0078 2.726562,-0.214844 4.125,-0.671875 C 13.925781,10.503906 15.253906,9.9375 16.515625,9.25 16.835938,9.082031 16.90625,8.820312 16.71875,8.46875 16.476562,8.125 16.25,7.796875 16.03125,7.484375 15.5,6.691406 14.972656,5.894531 14.453125,5.09375 c -0.9375,-1.5 -1.71875,-3.085938 -2.34375,-4.75 -0.15625,-0.4140625 -0.289063,-0.832031 -0.390625,-1.25 -0.105469,-0.414062 -0.15625,-0.847656 -0.15625,-1.296875 0.03125,-0.300781 0.08203,-0.601563 0.15625,-0.90625 0.07031,-0.1875 0.191406,-0.328125 0.359375,-0.421875 0.164063,-0.101562 0.359375,-0.15625 0.578125,-0.15625 0.09375,0 0.191406,0.011719 0.296875,0.03125 0.175781,0.042969 0.28125,0.136719 0.3125,0.28125 0.03906,0.136719 0.05078,0.277344 0.03125,0.421875 -0.02344,0.90625 0.140625,1.757813 0.484375,2.546875 0.539062,1.457031 1.203125,2.84375 1.984375,4.15625 0.78125,1.320312 1.625,2.597656 2.53125,3.828125 0.15625,0.195313 0.316406,0.304687 0.484375,0.328125 z m 0,0"
           id="path28" />
      </g>
    </g>
  </g>
  <g
     fill="#476258"
     fill-opacity="1"
     id="g34"
     transform="translate(-3.2779045,-1.2715594)">
    <g
       transform="translate(166.17869,47.054085)"
       id="g33">
      <g
         id="g32">
        <path
           d="m 0.359375,-2.59375 c -0.925781,0 -1.390625,-0.476562 -1.390625,-1.4375 0,-1.1875 0.765625,-3.269531 2.296875,-6.25 0.0625,-0.132812 0.171875,-0.203125 0.328125,-0.203125 0.613281,0 0.921875,0.246094 0.921875,0.734375 0,0.179688 -0.054687,0.390625 -0.15625,0.640625 -0.042969,0.074219 -0.558594,1.367187 -1.546875,3.875 -0.15625,0.40625 -0.234375,0.710937 -0.234375,0.90625 0,0.210937 0.097656,0.3125 0.296875,0.3125 0.71875,0 2.585938,-1.769531 5.609375,-5.3125 0.382813,-0.46875 0.769531,-0.703125 1.15625,-0.703125 0.550781,0 0.828125,0.203125 0.828125,0.609375 0,0.15625 -0.171875,0.746094 -0.515625,1.765625 -0.460937,1.398438 -0.6875,2.203125 -0.6875,2.421875 0,0.324219 0.101563,0.484375 0.3125,0.484375 0.539063,0 2.109375,-0.957031 4.703125,-2.875 0.144531,-0.125 0.269531,-0.1875 0.375,-0.1875 0.25,0 0.375,0.203125 0.375,0.609375 0,0.117187 -0.03906,0.203125 -0.109375,0.265625 C 11.546875,-5.757812 10.375,-4.863281 9.40625,-4.25 8.53125,-3.675781 7.75,-3.390625 7.0625,-3.390625 H 6.859375 c -1,-0.21875 -1.5,-1.003906 -1.5,-2.359375 C 4.285156,-4.800781 3.394531,-4.035156 2.6875,-3.453125 1.976562,-2.878906 1.203125,-2.59375 0.359375,-2.59375 Z m 0,0"
           id="path31" />
      </g>
    </g>
  </g>
  <g
     fill="#476258"
     fill-opacity="1"
     id="g37"
     transform="translate(-3.2779045,-1.2715594)">
    <g
       transform="translate(178.20858,47.054085)"
       id="g36">
      <g
         id="g35">
        <path
           d="m 5.8125,-6.15625 c -0.523438,0.617188 -1.140625,1.183594 -1.859375,1.703125 -0.710937,0.511719 -1.511719,0.859375 -2.40625,1.046875 -0.898437,0.179688 -1.5859375,0.109375 -2.078125,-0.203125 -0.5,-0.3125 -0.597656,-1.003906 -0.296875,-2.078125 0.386719,-1.113281 0.921875,-2.175781 1.609375,-3.1875 0.15625,-0.207031 0.378906,-0.359375 0.671875,-0.453125 0.207031,-0.039063 0.390625,0 0.546875,0.125 0.164062,0.117187 0.226562,0.265625 0.1875,0.453125 -0.148438,0.355469 -0.308594,0.710938 -0.484375,1.0625 -0.167969,0.34375 -0.28125,0.570312 -0.34375,0.671875 -0.34375,0.625 -0.585937,1.28125 -0.71875,1.96875 0,0.386719 0.519531,0.414063 1.5625,0.078125 1.050781,-0.34375 2.066406,-0.96875 3.046875,-1.875 0.988281,-0.914062 1.457031,-1.1875 1.40625,-0.8125 -0.042969,0.375 -0.324219,0.875 -0.84375,1.5 z M 3.265625,-11.0625 c -0.054687,0.04297 -0.15625,0.08984 -0.3125,0.140625 -0.148437,0.05469 -0.308594,0.09375 -0.484375,0.125 -0.167969,0.02344 -0.296875,-0.0039 -0.390625,-0.07813 -0.09375,-0.08203 -0.101563,-0.242188 -0.015625,-0.484375 0.15625,-0.40625 0.316406,-0.757813 0.484375,-1.0625 0.175781,-0.3125 0.398437,-0.65625 0.671875,-1.03125 0.175781,-0.164063 0.363281,-0.253906 0.5625,-0.265625 0.207031,-0.0078 0.378906,0.04687 0.515625,0.171875 0.132813,0.117187 0.175781,0.28125 0.125,0.5 -0.21875,0.773437 -0.605469,1.433594 -1.15625,1.984375 z m 0,0"
           id="path34" />
      </g>
    </g>
  </g>
  <g
     fill="#476258"
     fill-opacity="1"
     id="g40"
     transform="translate(-3.2779045,-1.2715594)">
    <g
       transform="translate(183.91619,47.054085)"
       id="g39">
      <g
         id="g38">
        <path
           d="M 11.59375,-7.296875 C 11.75,-7.109375 11.55078,-6.753906 11,-6.234375 10.457031,-5.710938 9.878906,-5.273438 9.265625,-4.921875 8.648438,-4.578125 7.9375,-4.226562 7.125,-3.875 6.59375,-3.644531 6.019531,-3.566406 5.40625,-3.640625 4.800781,-3.722656 4.5,-4.085938 4.5,-4.734375 c 0,-0.65625 0.148438,-1.304687 0.453125,-1.953125 0.3125,-0.664062 0.378906,-1.003906 0.203125,-1.015625 -0.167969,-0.019531 -0.523438,0.136719 -1.0625,0.46875 -1.398438,0.917969 -2.695312,1.96875 -3.890625,3.15625 -0.320313,0.386719 -0.734375,0.601563 -1.234375,0.640625 -0.25,0 -0.441406,-0.078125 -0.578125,-0.234375 -0.144531,-0.164063 -0.164063,-0.34375 -0.0625,-0.53125 0.867187,-1.582031 1.734375,-3.148437 2.609375,-4.703125 0.195312,-0.320312 0.488281,-0.523438 0.875,-0.609375 0.164062,-0.03125 0.316406,0.023437 0.453125,0.15625 0.144531,0.136719 0.21875,0.289063 0.21875,0.453125 -0.023437,0.15625 -0.085937,0.339844 -0.1875,0.546875 -0.054687,0.125 -0.101563,0.25 -0.140625,0.375 -0.042969,0.117187 -0.058594,0.214844 -0.046875,0.296875 0.019531,0.074219 0.082031,0.09375 0.1875,0.0625 0.144531,-0.070312 0.289063,-0.15625 0.4375,-0.25 0.375,-0.207031 0.726563,-0.410156 1.0625,-0.609375 0.3125,-0.175781 0.628906,-0.332031 0.953125,-0.46875 0.332031,-0.132813 0.679688,-0.226563 1.046875,-0.28125 0.582031,-0.039063 0.992187,0.089844 1.234375,0.390625 0.25,0.304688 0.28125,0.726562 0.09375,1.265625 C 6.925781,-7.085938 6.722656,-6.601562 6.515625,-6.125 6.242188,-5.675781 6.195312,-5.332031 6.375,-5.09375 c 0.175781,0.230469 0.992188,-0.039062 2.453125,-0.8125 l 1.09375,-0.65625 c 1.03125,-0.65625 1.585937,-0.898438 1.671875,-0.734375 z m 0,0"
           id="path37" />
      </g>
    </g>
  </g>
</svg>
