<?xml version="1.0" encoding="UTF-8"?>
<svg width="327px" height="320px" viewBox="0 0 327 320" version="1.1" xmlns="http://www.w3.org/2000/svg" xmlns:xlink="http://www.w3.org/1999/xlink">
    <g id="Page-1" stroke="none" stroke-width="1" fill="none" fill-rule="evenodd">
        <path d="M51.4092669,222.29166 L73.4462173,271.262661 L29.3723165,271.262661 L51.4092669,222.29166 Z" id="Triangle" stroke="#178B8E" stroke-width="7" fill="#73E2A7" transform="translate(51.4093, 244.2627) rotate(-144) translate(-51.4093, -244.2627)"></path>
        <path d="M168.368256,38.6671976 L262.986065,281.565832 C263.587454,283.10969 262.823431,284.848756 261.279573,285.450144 C260.932454,285.58536 260.563188,285.654742 260.190663,285.654742 L70.9550447,285.654742 C69.2981904,285.654742 67.9550447,284.311596 67.9550447,282.654742 C67.9550447,282.282217 68.024427,281.912951 68.1596424,281.565832 L162.777451,38.6671976 C163.37884,37.1233395 165.117906,36.3593171 166.661764,36.9607057 C167.4444,37.2655705 168.063391,37.8845621 168.368256,38.6671976 Z" id="Triangle" stroke="#178B8E" stroke-width="7" fill="#178B8E" transform="translate(165.5729, 158.5729) rotate(50) translate(-165.5729, -158.5729)"></path>
        <path d="M134.058174,117.936551 L134.263232,117.94437 C134.876232,117.992595 135.426176,118.260152 135.834926,118.668902 C136.243676,119.077652 136.511233,119.627596 136.559459,120.240597 L148.314175,269.656105 C148.368319,270.344335 148.138377,270.989356 147.722842,271.475855 C147.311055,271.957966 146.717009,272.284402 146.036554,272.342945 L122.312443,272.352178 C121.622087,272.352178 120.997087,272.072356 120.544676,271.619945 C120.096363,271.171632 119.817527,270.553844 119.812512,269.870924 L131.57486,120.240597 C131.629004,119.552367 131.956982,118.951239 132.443482,118.535703 C132.929981,118.120168 133.575002,117.890226 134.263232,117.94437 Z" id="Triangle" stroke="#73E2A7" fill="#73E2A7" transform="translate(134.0672, 177.5188) rotate(55) translate(-134.0672, -177.5188)"></path>
    </g>
</svg>