<svg width="258.915" viewBox="0 0 194.082 70.829" height="94.439" preserveAspectRatio="xMidYMid" version="1.0" xmlns="http://www.w3.org/2000/svg"><path d="M51.257 49.392c.175.156.253.32.234.5a1.365 1.365 0 0 1-.156.5v.047c-.625 1.469-1.57 2.578-2.828 3.328-1.25.75-2.758 1.062-4.516.937-1.7-.168-3.031-.761-4-1.78-.961-1.013-1.516-2.376-1.672-4.095a11.283 11.283 0 0 1 .094-2.515c.133-.82.3-1.649.5-2.485.125-.507.25-1.023.375-1.546.238-.852.445-1.723.625-2.61.25-1.375.097-2.328-.453-2.86-.543-.538-1.313-.827-2.313-.859-1-.03-2.012.024-3.031.157a18.31 18.31 0 0 1-1.61.109c-.199 0-.355.059-.468.172-.106.105-.2.226-.281.36a76.78 76.78 0 0 0-1.516 2.796 321.702 321.702 0 0 1-14.797 25.078 116.157 116.157 0 0 1-2.547 3.672c-.199.29-.422.55-.672.781a2.384 2.384 0 0 1-.875.516c-.648.188-1.156.145-1.53-.125-.376-.273-.552-.75-.532-1.437.043-.782.164-1.575.36-2.375 1.155-4.856 2.648-9.012 4.484-12.47a43.647 43.647 0 0 1 6.64-9.343c2.602-2.789 5.602-5.61 9-8.453a4.864 4.864 0 0 0 1.281-1.578 749.692 749.692 0 0 0 6.235-12.172 197.716 197.716 0 0 0 4.578-9.75c1.414-3.281 2.144-5.734 2.187-7.36.04-1.624-.714-2.476-2.265-2.562-1.543-.094-3.977.523-7.297 1.844a112.068 112.068 0 0 0-9.578 4.39 161.863 161.863 0 0 0-9.219 5.141c-1.137.656-2.539 1.54-4.203 2.64a73.917 73.917 0 0 0-4.906 3.548c-1.625 1.261-2.961 2.496-4.016 3.703-.77.918-.96 1.543-.578 1.875.387.336 1.156.523 2.312.562.555.024 1.5.027 2.844.016a64.77 64.77 0 0 0 4.485-.203c.925-.07 1.828-.141 2.703-.203a72.261 72.261 0 0 1 3.422-.25c.945-.051 1.503 0 1.671.156.063.168-.593.355-1.968.562-1.367.211-3.055.399-5.063.563a93.373 93.373 0 0 1-5.844.312c-1.882.032-3.312-.039-4.28-.218-1.696-.364-2.47-1.02-2.313-1.97.148-.956.965-2.113 2.453-3.468 1.48-1.352 3.367-2.789 5.656-4.312a138.27 138.27 0 0 1 7.375-4.547c2.633-1.52 5.18-2.926 7.64-4.22 2.458-1.3 4.571-2.378 6.344-3.233 1.782-.864 2.985-1.422 3.61-1.672 2.562-1.04 4.812-1.743 6.75-2.11 1.937-.363 3.453-.265 4.547.297 1.101.563 1.66 1.703 1.672 3.422.007 1.719-.637 4.14-1.938 7.266a161.32 161.32 0 0 1-3.375 7.39 485.596 485.596 0 0 1-3.625 7.282l-1.453 2.875c-.273.542-.57 1.117-.89 1.718.363-.093.656-.207.874-.343.227-.145.43-.29.61-.438.082-.07.175-.133.28-.187 4.29-3.145 8.978-6.305 14.063-9.485a176.192 176.192 0 0 1 16.032-8.906 119.024 119.024 0 0 1 17.187-6.875c5.863-1.832 11.711-2.961 17.547-3.39 5.844-.427 11.547.085 17.11 1.53a.418.418 0 0 1 .187.172.44.44 0 0 1 .094.266.353.353 0 0 1-.141.297.587.587 0 0 1-.375.11.488.488 0 0 1-.344-.032c-4.636-1.195-9.445-1.656-14.422-1.375-4.968.273-10.007 1.105-15.109 2.5a111.372 111.372 0 0 0-15.172 5.375 160.44 160.44 0 0 0-14.562 7.25 199.24 199.24 0 0 0-13.235 8.11c-4.125 2.773-7.86 5.433-11.203 7.984l-.031.031a4.35 4.35 0 0 0-.75.578c-.23.211-.34.39-.328.547.02.148.289.215.812.203h.453a21.79 21.79 0 0 1 2.97-.078 8.994 8.994 0 0 1 2.859.531c1.25.512 1.875 1.434 1.875 2.766a10.09 10.09 0 0 1-.235 1.828c-.219.992-.45 1.98-.687 2.969a467.77 467.77 0 0 0-.688 3.25 7.574 7.574 0 0 0 .125 3.86c.363 1.112.93 1.976 1.703 2.593.77.613 1.649.93 2.64.953.99.031 1.974-.273 2.954-.906a5.69 5.69 0 0 0 1.781-1.89c.082-.18.164-.356.25-.532.063-.168.133-.328.22-.484.175-.274.374-.461.593-.563.226-.094.426-.078.594.047Zm-23.72-9.016c.02-.031.056-.082.11-.156.07-.145.172-.32.297-.531a3.18 3.18 0 0 0 .281-.625c.063-.196.067-.317.016-.36-.055-.039-.215.047-.484.266-4.368 3.43-7.805 7.281-10.313 11.563-2.5 4.289-4.375 9.203-5.625 14.734-.105.488-.117.758-.031.812.094.063.234-.011.422-.218.195-.2.383-.434.562-.703.188-.262.328-.45.422-.563a382.84 382.84 0 0 0 7.422-11.969 285.059 285.059 0 0 0 6.922-12.25Zm0 0" fill="#476258"/><path d="M57.178 38.33c.227.124.25.445.063.953a9.794 9.794 0 0 1-.906 1.046c-.325.325-.68.61-1.063.86-.031 0-.047.011-.047.031-.25.18-.515.328-.797.453-2.336.836-3.527.34-3.578-1.484-.937.824-1.57 1.328-1.89 1.515a4.267 4.267 0 0 1-2.5.61c-.664-.04-1.118-.242-1.36-.61-.238-.363-.219-.859.063-1.484a8.376 8.376 0 0 1 1.828-2.625 11.658 11.658 0 0 1 3.094-2.078 3.388 3.388 0 0 1 1.906-.344c.656.043 1.05.418 1.187 1.125a.557.557 0 0 1-.156.578c-.219.188-.469.23-.75.125a.213.213 0 0 1-.078-.015.146.146 0 0 1-.078-.047c-.281-.383-.57-.547-.86-.485a3.054 3.054 0 0 0-.906.391 8.07 8.07 0 0 0-3.36 3.672.46.46 0 0 0-.077.219c0 .086.023.152.078.203a.789.789 0 0 0 .578-.031c.219-.083.43-.204.64-.36.22-.164.399-.3.547-.406l.032-.047a52.319 52.319 0 0 0 2.093-1.828 1.72 1.72 0 0 1 1.125-.547c.645 0 .915.29.813.86a45.11 45.11 0 0 1-.188.64c-.261.93-.277 1.477-.046 1.64.238.157.597.157 1.078 0 .488-.163.972-.472 1.453-.921.488-.457.894-.875 1.219-1.25.332-.375.613-.492.843-.36zm0 0" fill="#476258"/><path d="M65.413 38.72c-1.305 1.543-2.586 2.68-3.844 3.406a5.76 5.76 0 0 1-4.016.719c-1.426-.25-2.015-1.207-1.765-2.875.18-.832.418-1.648.718-2.453.75-1.863 1.508-3.719 2.282-5.563.25-.664.52-1.332.812-2a49.081 49.081 0 0 0 .5-1.187c.156-.426-.012-.649-.5-.672h-1.266c-.148.023-.296.04-.453.047-.25.023-.5.031-.75.031s-.484-.062-.703-.187a.29.29 0 0 1-.14-.11.351.351 0 0 1-.047-.187c.023-.031.05-.07.093-.125a.236.236 0 0 1 .172-.11c.219-.093.442-.16.672-.203.602-.02 1.203-.039 1.797-.062h.625c.383 0 .672-.016.86-.047a.665.665 0 0 0 .468-.313 5.99 5.99 0 0 0 .406-.796c.082-.196.192-.415.329-.657.32-.676.64-1.367.953-2.078.144-.32.297-.633.453-.937.133-.301.336-.536.61-.703.257-.133.487-.125.687.03.062.032.109.095.14.188a.693.693 0 0 1 .047.235c0 .375-.101.75-.297 1.125-.031.074-.074.168-.125.28-.125.345-.261.7-.406 1.063a54.99 54.99 0 0 0-.812 2.032c-.063.125-.063.242 0 .343a.314.314 0 0 0 .28.141c.688.023 1.364.031 2.032.031h1.031c1.07.024 1.5.172 1.282.453-.149.168-.31.266-.485.297a1.64 1.64 0 0 1-.515-.015h-.313c-1.094.062-2.18.105-3.25.125-.5 0-.836.226-1 .672-.18.43-.352.859-.516 1.296a84.647 84.647 0 0 0-.687 1.657c-.211.5-.422 1.011-.64 1.53a156.85 156.85 0 0 0-1.61 3.938c-.324.856-.574 1.73-.75 2.625-.418 1.637.207 2.262 1.875 1.875 1.644-.382 3.363-1.562 5.156-3.53.781-.5.985-.274.61.671zm0 0" fill="#476258"/><path d="M76.46 38.97a3.845 3.845 0 0 1-.547.422c-.625.387-1.196.695-1.703.922-.5.219-1.09.449-1.766.687-1.012.305-1.664.235-1.953-.203-.293-.437-.34-1.047-.14-1.828.269-1.113.425-1.926.468-2.437.05-.52-.117-.704-.5-.547-.387.156-1.09.695-2.11 1.609a18.923 18.923 0 0 0-3.624 4.172 1.632 1.632 0 0 1-.47.531 1.129 1.129 0 0 1-.687.203c-.258 0-.445-.066-.562-.203-.125-.133-.13-.316-.016-.547.574-1.27 1.164-2.531 1.766-3.781 1.031-2.164 2.05-4.32 3.062-6.469a617.16 617.16 0 0 0 2.219-4.828c.445-.945.883-1.894 1.313-2.844.039-.07.085-.156.14-.25.031-.101.07-.207.125-.312a10.1 10.1 0 0 0 .188-.36.657.657 0 0 1 .328-.25c.164-.07.328-.117.484-.14.164-.02.29-.008.375.031.125.086.192.18.203.281a.453.453 0 0 1-.047.297.258.258 0 0 0-.015.11 34.7 34.7 0 0 1-.625 1.672 135.678 135.678 0 0 1-4.047 8.812c-.106.2-.234.434-.39.703-.212.399-.407.781-.594 1.156-.188.375-.25.625-.188.75.063.125.352.028.875-.296.156-.102.297-.208.422-.313.414-.281.82-.539 1.219-.781a2.363 2.363 0 0 1 1.172-.375c1.02-.07 1.593.39 1.718 1.39.051.399.035.793-.047 1.188a15.62 15.62 0 0 1-.265 1.14c-.024.118-.043.227-.063.329-.18.668-.133 1.054.14 1.156.27.094.645.039 1.126-.172.476-.207.969-.457 1.469-.75.343-.176.644-.328.906-.453.258-.125.453-.176.578-.156.227.03.332.125.313.28-.012.157-.094.31-.25.454zm0 0" fill="#476258"/><path d="M84.095 40.173a8.186 8.186 0 0 1-1.985 1.422c-.75.398-1.382.656-1.89.781a8.14 8.14 0 0 1-1.563.203c-.855.043-1.64-.078-2.36-.359-1.187-.469-1.597-1.379-1.234-2.734.344-1.157 1.036-2.063 2.079-2.72 1.039-.655 2.117-.972 3.234-.952h.031c.281-.02.547 0 .797.062.438.157.711.414.828.766.114.344.035.734-.234 1.172-.625.937-1.477 1.465-2.547 1.578a7.066 7.066 0 0 1-2.063-.11.398.398 0 0 0-.343.11.521.521 0 0 0-.172.312c-.2.844.062 1.383.781 1.61.875.304 1.785.304 2.734 0 1.094-.332 2.13-.973 3.11-1.922.988-.945 1.555-1.39 1.703-1.328.156.062.203.246.14.547-.136.48-.484 1-1.046 1.562zm-6.235-2.36a.459.459 0 0 0-.125.22c-.023.085.008.164.094.234.344.187.711.258 1.11.203a1.79 1.79 0 0 0 1.015-.453c.281-.25.399-.55.36-.906-.032-.133-.102-.22-.204-.25a.713.713 0 0 0-.328-.016c-.719.125-1.36.45-1.922.969Zm0 0" fill="#476258"/><path d="M91.284 36.798c-.086.68-.402 1.121-.953 1.328-.543.2-.719-.07-.531-.812.195-.739-.137-.926-1-.563-.856.367-1.559.824-2.11 1.375a17.947 17.947 0 0 0-2.297 2.844c-.062.086-.117.156-.156.219-.195.281-.39.547-.578.797a.89.89 0 0 1-.453.343 1.202 1.202 0 0 1-.516.016.544.544 0 0 1-.375-.187c-.093-.114-.101-.243-.03-.391a9.01 9.01 0 0 1 .374-.797c.875-1.633 1.766-3.27 2.672-4.906.02-.02.031-.04.031-.063a3.72 3.72 0 0 1 .453-.703c.196-.207.422-.289.672-.25.258.031.43.184.516.453.101.336.191.528.265.578.083.043.266.012.547-.093a8.551 8.551 0 0 1 1.703-.453c.563-.094 1.02-.07 1.375.062.352.125.485.527.391 1.203zm6.114 2.828a10.425 10.425 0 0 1-1.859 1.703c-.71.512-1.512.86-2.406 1.047-.899.18-1.586.11-2.078-.203-.5-.312-.598-1.004-.297-2.078a13.581 13.581 0 0 1 1.61-3.187c.155-.208.378-.36.671-.454.207-.039.39 0 .547.125.164.118.227.266.187.454-.148.355-.308.71-.484 1.062-.168.344-.281.57-.344.672a6.71 6.71 0 0 0-.718 1.969c0 .386.52.414 1.562.078 1.05-.344 2.066-.969 3.047-1.875.988-.914 1.457-1.188 1.406-.813-.043.375-.324.875-.844 1.5zm-2.546-4.906a1.09 1.09 0 0 1-.313.14 2.828 2.828 0 0 1-.484.126c-.168.023-.297-.004-.39-.078-.095-.083-.102-.243-.017-.485.157-.406.317-.758.485-1.062.176-.313.398-.657.672-1.032.175-.164.363-.254.562-.265a.691.691 0 0 1 .516.172c.133.117.176.28.125.5a4.481 4.481 0 0 1-1.156 1.984zm0 0" fill="#476258"/><path d="M108.887 38.486c.157.187-.043.543-.593 1.062a8.817 8.817 0 0 1-1.735 1.313c-.617.343-1.328.695-2.14 1.047a3.262 3.262 0 0 1-1.72.234c-.605-.082-.905-.445-.905-1.094 0-.656.148-1.305.453-1.953.312-.664.379-1.004.203-1.016-.168-.02-.524.137-1.063.47a24.868 24.868 0 0 0-3.89 3.155 1.72 1.72 0 0 1-1.235.641c-.25 0-.441-.078-.578-.234a.432.432 0 0 1-.062-.532 479.801 479.801 0 0 1 2.61-4.703c.194-.32.487-.523.874-.61.164-.03.316.024.453.157.145.137.219.29.219.453-.024.157-.086.34-.188.547-.054.125-.101.25-.14.375a.622.622 0 0 0-.047.297c.02.074.082.094.187.063.145-.07.29-.157.438-.25.375-.208.726-.41 1.062-.61a9.46 9.46 0 0 1 .954-.469 4.66 4.66 0 0 1 1.046-.28c.582-.04.993.089 1.235.39.25.304.281.726.094 1.265-.2.493-.403.977-.61 1.454-.273.449-.32.792-.14 1.03.175.231.992-.038 2.453-.812l1.093-.656c1.032-.656 1.586-.898 1.672-.734zm0 0" fill="#476258"/><path d="M116.365 40.173a8.186 8.186 0 0 1-1.985 1.422c-.75.398-1.382.656-1.89.781a8.14 8.14 0 0 1-1.563.203c-.855.043-1.64-.078-2.36-.359-1.187-.469-1.597-1.379-1.234-2.734.344-1.157 1.036-2.063 2.079-2.72 1.039-.655 2.117-.972 3.234-.952h.031c.281-.02.547 0 .797.062.438.157.711.414.828.766.113.344.035.734-.234 1.172-.625.937-1.477 1.465-2.547 1.578a7.066 7.066 0 0 1-2.063-.11.398.398 0 0 0-.343.11.521.521 0 0 0-.172.312c-.2.844.062 1.383.781 1.61.875.304 1.785.304 2.734 0 1.094-.332 2.13-.973 3.11-1.922.988-.945 1.555-1.39 1.703-1.328.156.062.203.246.14.547-.136.48-.484 1-1.046 1.562zm-6.235-2.36a.459.459 0 0 0-.125.22c-.023.085.008.164.094.234.344.187.711.258 1.11.203a1.79 1.79 0 0 0 1.015-.453c.281-.25.399-.55.36-.906-.032-.133-.102-.22-.204-.25a.713.713 0 0 0-.328-.016c-.719.125-1.36.45-1.922.969Zm83.834 24.11c.082.07.133.145.156.219.02.082-.011.16-.093.234-3.868 2.688-7.86 4.766-11.985 6.235-4.125 1.476-8.324 2.218-12.594 2.218-4.261 0-8.546-.914-12.859-2.734-5.824-2.523-10.742-6.2-14.75-11.031a.972.972 0 0 1-.156-.235.913.913 0 0 1-.188-.218 4.076 4.076 0 0 0-.468-.5.738.738 0 0 0-.344-.203c-.2.039-.512.16-.938.359a23.91 23.91 0 0 1-4.172 1.469 17.008 17.008 0 0 1-4.53.562c-1.512-.012-2.907-.324-4.188-.937-1.282-.606-2.34-1.618-3.172-3.032a14.02 14.02 0 0 1-1.453-3.703 18.942 18.942 0 0 1-.485-3.968c-.082-3.813.508-7.555 1.766-11.235.05-.144.11-.289.172-.437.082-.22.16-.422.234-.61.102-.343.004-.613-.297-.812l-.265-.156a14.162 14.162 0 0 1-.828-.516c-2.875-1.957-4.207-4.707-4-8.25.18-2.332.984-4.672 2.421-7.016 1.438-2.343 3.317-4.562 5.641-6.656a46.058 46.058 0 0 1 7.766-5.625c2.843-1.645 5.758-2.937 8.75-3.875 3-.945 5.879-1.437 8.64-1.469 2.77-.031 5.243.512 7.422 1.625 2.188 1.117 3.88 2.907 5.078 5.375 1.176 2.617 1.743 5.383 1.703 8.297-.011.399-.015.79-.015 1.172-.031.168-.047.34-.047.516a35.516 35.516 0 0 1-1.11 7.797 47.427 47.427 0 0 1-2.624 7.468c-2.043 4.543-4.618 8.649-7.72 12.313-3.093 3.664-6.734 6.867-10.921 9.61-.063.03-.121.054-.172.077-.156.114-.312.223-.469.328-.28.258-.304.524-.062.797l.094.172.125.125c3.414 4.25 7.296 7.567 11.64 9.953 4.344 2.395 8.977 3.739 13.906 4.032 4.926.3 9.985-.594 15.172-2.688a37.819 37.819 0 0 0 7.407-4.187c.52-.344 1.054-.668 1.609-.97a1.43 1.43 0 0 1 .562-.109c.208 0 .422.07.641.22zm-52.25-8.234c.102 0 .219-.047.344-.14.195-.126.398-.25.61-.376.644-.43 1.28-.87 1.905-1.328 7.446-5.625 12.93-12.738 16.454-21.344a39.604 39.604 0 0 0 2.14-6.687c.52-2.32.86-4.82 1.016-7.5.039-.969-.059-2.281-.297-3.938a16.445 16.445 0 0 0-1.953-5.922c-1.2-2.007-2.805-3.43-4.813-4.265-2.011-.832-4.257-1.16-6.734-.985-2.48.168-5.059.727-7.734 1.672a41.77 41.77 0 0 0-7.782 3.735 43.56 43.56 0 0 0-6.906 5.172c-2.086 1.917-3.781 3.933-5.094 6.046-1.32 2.118-2.113 4.215-2.375 6.297-.382 3.418.809 6.078 3.578 7.985.188.148.348.23.485.25.144-.04.289-.188.437-.438.176-.258.336-.508.485-.75.238-.406.488-.789.75-1.156.207-.332.531-.516.968-.547h.125c.145 0 .274.063.391.188.113.117.145.246.094.39-.18.344-.367.688-.563 1.031-.25.43-.484.856-.703 1.282-.336.605-.195.98.422 1.125 1.957.605 3.863.726 5.719.359a12.444 12.444 0 0 0 5.078-2.25 13.213 13.213 0 0 0 3.734-4.25c.957-1.695 1.5-3.582 1.625-5.656a12.051 12.051 0 0 0-.937-5.61.578.578 0 0 1-.031-.265.81.81 0 0 1 .062-.25.603.603 0 0 1 .563-.219.345.345 0 0 1 .25 0c.382.105.64.352.765.734a11.39 11.39 0 0 1 .844 3.375c.281 2.344-.012 4.575-.875 6.688a14.494 14.494 0 0 1-3.844 5.437c-1.71 1.524-3.719 2.559-6.031 3.11a16.149 16.149 0 0 1-7.344-.031 2.72 2.72 0 0 0-.64-.094.466.466 0 0 0-.375.187c-.094.125-.184.32-.266.578a35.351 35.351 0 0 0-1.453 5.735 27.42 27.42 0 0 0-.344 5.86 15.76 15.76 0 0 0 1.375 6.124c.707 1.55 1.629 2.66 2.766 3.328a7.284 7.284 0 0 0 3.734 1.032c1.352.007 2.727-.215 4.125-.672a23.119 23.119 0 0 0 3.984-1.703c.32-.168.391-.43.204-.782-.243-.343-.47-.672-.688-.984-.531-.793-1.058-1.59-1.578-2.39a26.57 26.57 0 0 1-2.344-4.75 10.773 10.773 0 0 1-.39-1.25 5.242 5.242 0 0 1-.157-1.298c.032-.3.082-.601.157-.906a.783.783 0 0 1 .359-.422 1.09 1.09 0 0 1 .578-.156c.094 0 .192.012.297.031.176.043.281.137.312.282.04.136.051.277.032.421-.024.907.14 1.758.484 2.547a25.23 25.23 0 0 0 1.984 4.157 45.67 45.67 0 0 0 2.532 3.828c.156.195.316.304.484.328zm0 0" fill="#476258"/><path d="M163.26 43.189c-.926 0-1.39-.477-1.39-1.438 0-1.187.765-3.27 2.296-6.25a.336.336 0 0 1 .329-.203c.613 0 .921.246.921.735 0 .18-.054.39-.156.64-.043.074-.558 1.367-1.547 3.875-.156.406-.234.711-.234.906 0 .211.098.313.297.313.719 0 2.586-1.77 5.61-5.313.382-.468.769-.703 1.155-.703.551 0 .829.203.829.61 0 .156-.172.746-.516 1.765-.461 1.399-.688 2.203-.688 2.422 0 .324.102.485.313.485.539 0 2.11-.958 4.703-2.875.145-.125.27-.188.375-.188.25 0 .375.203.375.61a.332.332 0 0 1-.11.265c-1.374 1.18-2.546 2.074-3.515 2.688-.875.574-1.656.859-2.344.859h-.203c-1-.219-1.5-1.004-1.5-2.36-1.074.95-1.965 1.715-2.672 2.297-.71.575-1.484.86-2.328.86Zm0 0" fill="#476258"/><path d="M180.743 39.626a10.425 10.425 0 0 1-1.86 1.703c-.71.512-1.51.86-2.405 1.047-.899.18-1.586.11-2.079-.203-.5-.312-.597-1.004-.296-2.078a13.581 13.581 0 0 1 1.609-3.187 1.31 1.31 0 0 1 .672-.454c.207-.039.39 0 .547.125.164.118.226.266.187.454-.148.355-.308.71-.484 1.062-.168.344-.281.57-.344.672a6.71 6.71 0 0 0-.719 1.969c0 .386.52.414 1.563.078 1.05-.344 2.066-.969 3.047-1.875.988-.914 1.457-1.188 1.406-.813-.043.375-.324.875-.844 1.5zm-2.547-4.906a1.09 1.09 0 0 1-.312.14 2.828 2.828 0 0 1-.485.126c-.168.023-.296-.004-.39-.078-.094-.083-.102-.243-.016-.485a8.51 8.51 0 0 1 .485-1.062c.175-.313.398-.657.671-1.032.176-.164.364-.254.563-.265a.691.691 0 0 1 .516.172c.132.117.175.28.125.5a4.481 4.481 0 0 1-1.157 1.984zm0 0" fill="#476258"/><path d="M192.232 38.486c.156.187-.043.543-.594 1.062a8.817 8.817 0 0 1-1.734 1.313c-.617.343-1.328.695-2.14 1.047a3.262 3.262 0 0 1-1.72.234c-.605-.082-.906-.445-.906-1.094 0-.656.149-1.305.453-1.953.313-.664.38-1.004.204-1.016-.168-.02-.524.137-1.063.47a24.868 24.868 0 0 0-3.89 3.155 1.72 1.72 0 0 1-1.235.641c-.25 0-.441-.078-.578-.234a.432.432 0 0 1-.063-.532 479.801 479.801 0 0 1 2.61-4.703c.195-.32.488-.523.875-.61.164-.03.316.024.453.157.144.137.219.29.219.453-.024.157-.086.34-.188.547-.055.125-.101.25-.14.375a.622.622 0 0 0-.047.297c.02.074.082.094.187.063.145-.07.29-.157.438-.25.375-.208.726-.41 1.062-.61a9.55 9.55 0 0 1 .953-.469c.332-.132.68-.226 1.047-.28.582-.04.992.089 1.235.39.25.304.28.726.093 1.265-.199.493-.402.977-.61 1.454-.273.449-.32.792-.14 1.03.176.231.992-.038 2.453-.812l1.094-.656c1.031-.656 1.586-.898 1.672-.734zm0 0" fill="#476258"/></svg>